<svg width="370" height="244" viewBox="0 0 370 244" fill="none" xmlns="http://www.w3.org/2000/svg">
<path d="M131.212 45.34C137.252 45.34 142.542 43.07 147.082 38.54C151.612 34.01 153.882 28.72 153.882 22.67C153.882 16.62 151.612 11.34 147.082 6.79999C142.552 2.26999 137.252 0 131.212 0C125.172 0 119.882 2.26999 115.342 6.79999C110.812 11.33 108.542 16.62 108.542 22.67C108.542 28.72 110.812 34 115.342 38.54C119.872 43.07 125.162 45.34 131.212 45.34Z" fill="#F0ECE0"/>
<path d="M363.102 205.4C358.572 200.87 353.272 198.6 347.232 198.6C341.182 198.6 335.892 200.87 331.362 205.4C326.832 209.93 324.562 215.22 324.562 221.27C324.562 227.32 326.832 232.6 331.362 237.14C335.892 241.67 341.182 243.94 347.232 243.94C353.282 243.94 358.562 241.67 363.102 237.14C367.632 232.61 369.902 227.32 369.902 221.27C369.902 215.22 367.632 209.94 363.102 205.4Z" fill="#F0ECE0"/>
<path d="M295.032 89.39C287.622 81.98 279.582 76.43 270.892 72.73C262.202 69.03 253.362 67.14 244.372 67.06C235.382 66.99 226.502 68.76 217.742 72.39C208.972 76.02 200.972 81.46 193.712 88.71L132.962 149.46L133.072 149.57L98.7119 183.93C91.0019 191.64 82.4719 195.41 73.1019 195.26C63.7319 195.11 55.1219 191.11 47.2619 183.25C39.4019 175.39 35.4419 166.82 35.3619 157.52C35.2919 148.23 39.102 139.73 46.812 132.02L107.562 71.27L82.632 46.34L21.882 107.09C14.632 114.34 9.15196 122.31 5.44196 131C1.74196 139.69 -0.0680453 148.53 0.00195472 157.52C0.0819547 166.51 1.97194 175.35 5.67194 184.04C9.37194 192.73 14.9319 200.78 22.3319 208.18C29.7419 215.59 37.782 221.14 46.472 224.84C55.162 228.54 64.0019 230.43 72.9919 230.51C81.9819 230.58 90.862 228.81 99.632 225.18C108.402 221.55 116.402 216.11 123.662 208.86L184.412 148.11L184.302 148L218.662 113.64C226.372 105.93 234.902 102.16 244.272 102.31C253.642 102.46 262.252 106.46 270.112 114.32C277.972 122.18 281.932 130.75 282.012 140.05C282.082 149.34 278.272 157.84 270.562 165.55L222.282 213.83C215.392 220.72 215.392 231.88 222.282 238.76C229.172 245.65 240.332 245.65 247.212 238.76L295.492 190.48C302.742 183.23 308.222 175.26 311.922 166.57C315.622 157.88 317.432 149.04 317.362 140.05C317.282 131.06 315.392 122.22 311.692 113.53C307.992 104.84 302.432 96.79 295.032 89.39Z" fill="#F0ECE0"/>
</svg>
