<svg width="727" height="205" viewBox="0 0 727 205" fill="none" xmlns="http://www.w3.org/2000/svg">
<path d="M15.93 0C20.48 0 24.27 1.51999 27.31 4.54999C30.34 7.58999 31.86 11.38 31.86 15.93C31.86 20.48 30.34 24.27 27.31 27.31C24.27 30.35 20.48 31.86 15.93 31.86C11.38 31.86 7.59 30.35 4.55 27.31C1.51 24.28 0 20.48 0 15.93C0 11.38 1.51 7.58999 4.55 4.54999C7.58 1.51999 11.38 0 15.93 0ZM3.41 52.33H28.44V161.53H3.41V52.33Z" fill="#F0ECE0"/>
<path d="M102.381 75.0798C94.4907 75.0798 88.1607 77.3898 83.3807 82.0198C78.6007 86.6498 76.2107 92.8298 76.2107 100.56V161.53H51.1807V100.56C51.1807 93.2798 52.4707 86.5298 55.0507 80.3098C57.6307 74.0898 61.1907 68.7498 65.7407 64.2698C70.2907 59.7998 75.6707 56.3098 81.8907 53.7998C88.1107 51.2998 94.9307 50.0498 102.371 50.0498C109.811 50.0498 116.621 51.2998 122.851 53.7998C129.071 56.2998 134.451 59.7898 139.001 64.2698C143.551 68.7498 147.081 74.0898 149.581 80.3098C152.081 86.5298 153.331 93.2798 153.331 100.56V161.53H128.301V100.56C128.301 92.8198 125.951 86.6498 121.251 82.0198C116.551 77.3998 110.251 75.0798 102.371 75.0798H102.381Z" fill="#F0ECE0"/>
<path d="M167.44 52.33H181.09V22.75H206.12V52.33H232.28V77.36H206.12V113.76C206.12 121.95 208.36 128.17 212.83 132.42C217.3 136.67 223.79 138.79 232.28 138.79V163.82C224.54 163.82 217.53 162.6 211.24 160.18C204.95 157.76 199.56 154.38 195.09 150.06C190.61 145.74 187.16 140.47 184.74 134.25C182.31 128.03 181.1 121.21 181.1 113.77V77.37H167.45V52.34L167.44 52.33Z" fill="#F0ECE0"/>
<path d="M301.67 75.0798C293.63 75.0798 287.26 77.2798 282.56 81.6798C277.86 86.0798 275.51 92.0698 275.51 99.6498V161.53H250.48V100.56C250.48 92.8198 251.69 85.8498 254.12 79.6298C256.54 73.4098 260 68.1098 264.47 63.6998C268.94 59.2998 274.33 55.9298 280.62 53.5798C286.91 51.2298 293.93 50.0498 301.66 50.0498V75.0798H301.67Z" fill="#F0ECE0"/>
<path d="M310.771 106.93C310.771 98.7398 312.17 91.1598 314.98 84.1798C317.78 77.2098 321.691 71.1798 326.701 66.0898C331.701 61.0098 337.66 57.0698 344.56 54.2598C351.46 51.4498 359.011 50.0498 367.201 50.0498C375.391 50.0498 382.931 51.4498 389.841 54.2598C396.741 57.0698 402.691 61.0098 407.701 66.0898C412.701 71.1698 416.61 77.1998 419.42 84.1798C422.22 91.1598 423.63 98.7398 423.63 106.93C423.63 107.99 423.591 109.02 423.521 110C423.441 110.99 423.251 112.24 422.951 113.75H336.271C337.641 121.49 341.011 127.59 346.391 132.06C351.771 136.54 358.711 138.77 367.211 138.77C372.971 138.77 378.09 137.71 382.57 135.58C387.04 133.46 390.65 130.35 393.38 126.25H420.68C418.86 132.02 416.28 137.21 412.94 141.83C409.6 146.46 405.62 150.4 401 153.66C396.37 156.92 391.221 159.43 385.531 161.17C379.841 162.91 373.731 163.79 367.221 163.79C359.031 163.79 351.481 162.39 344.581 159.58C337.681 156.77 331.73 152.87 326.72 147.86C321.71 142.85 317.81 136.86 315 129.89C312.19 122.92 310.79 115.26 310.79 106.91L310.771 106.93ZM397 95.5498C394.88 89.1798 391.231 84.1698 386.081 80.5298C380.921 76.8898 374.631 75.0698 367.201 75.0698C359.771 75.0698 353.24 76.8898 348.09 80.5298C342.93 84.1698 339.37 89.1798 337.4 95.5498H397.01H397Z" fill="#F0ECE0"/>
<path d="M466.841 204.76H441.811V93.2801H466.841V108.07C466.841 112.32 467.641 116.34 469.231 120.13C470.821 123.92 472.981 127.18 475.711 129.91C478.441 132.64 481.661 134.8 485.381 136.39C489.091 137.98 493.151 138.78 497.551 138.78C501.951 138.78 505.781 137.98 509.491 136.39C513.201 134.8 516.461 132.64 519.271 129.91C522.071 127.18 524.281 123.92 525.871 120.13C527.461 116.34 528.261 112.32 528.261 108.07C528.261 103.82 527.461 99.6201 525.871 95.9001C524.281 92.1901 522.081 88.9601 519.271 86.2301C516.461 83.5001 513.201 81.3401 509.491 79.7501C505.771 78.1601 501.791 77.3601 497.551 77.3601H441.811V52.3301H497.551C505.291 52.3301 512.571 53.7701 519.391 56.6501C526.221 59.5301 532.131 63.4801 537.141 68.4801C542.151 73.4901 546.091 79.3601 548.971 86.1101C551.851 92.8601 553.291 100.18 553.291 108.06C553.291 115.94 551.891 123.08 549.081 129.9C546.271 136.73 542.481 142.64 537.701 147.65C532.921 152.66 527.271 156.6 520.751 159.48C514.231 162.36 507.171 163.8 499.591 163.8C493.221 163.8 487.301 162.81 481.841 160.84C476.381 158.87 471.381 156.14 466.831 152.65V204.75L466.841 204.76Z" fill="#F0ECE0"/>
<path d="M584.01 0C588.56 0 592.35 1.51999 595.39 4.54999C598.42 7.58999 599.94 11.38 599.94 15.93C599.94 20.48 598.42 24.27 595.39 27.31C592.35 30.35 588.56 31.86 584.01 31.86C579.46 31.86 575.67 30.35 572.63 27.31C569.59 24.28 568.08 20.48 568.08 15.93C568.08 11.38 569.59 7.58999 572.63 4.54999C575.66 1.51999 579.46 0 584.01 0ZM571.49 52.33H596.52V161.53H571.49V52.33Z" fill="#F0ECE0"/>
<path d="M701.171 9.1001H726.201V120.58H701.171V105.79C701.171 101.39 700.371 97.3401 698.781 93.6201C697.191 89.9101 695.031 86.6801 692.301 83.9501C689.571 81.2201 686.341 79.0601 682.631 77.4701C678.911 75.8801 674.861 75.0801 670.461 75.0801C666.061 75.0801 662.231 75.8801 658.521 77.4701C654.801 79.0601 651.541 81.2201 648.741 83.9501C645.931 86.6801 643.741 89.9001 642.141 93.6201C640.551 97.3401 639.751 101.39 639.751 105.79C639.751 110.19 640.551 114.06 642.141 117.85C643.731 121.64 645.931 124.9 648.741 127.63C651.551 130.36 654.811 132.52 658.521 134.11C662.231 135.7 666.221 136.5 670.461 136.5H726.201V161.53H670.461C662.721 161.53 655.441 160.09 648.621 157.21C641.791 154.33 635.881 150.38 630.871 145.38C625.861 140.37 621.921 134.5 619.041 127.75C616.161 121 614.721 113.68 614.721 105.8C614.721 97.9201 616.121 90.7801 618.931 83.9601C621.731 77.1301 625.531 71.2201 630.311 66.2101C635.091 61.2101 640.781 57.2601 647.371 54.3801C653.971 51.5001 660.981 50.0601 668.411 50.0601C674.781 50.0601 680.701 51.0501 686.161 53.0201C691.621 54.9901 696.631 57.7201 701.181 61.2101V9.11008L701.171 9.1001Z" fill="#F0ECE0"/>
</svg>
