<?xml version="1.0" encoding="UTF-8"?>
<svg id="Capa_1" xmlns="http://www.w3.org/2000/svg" version="1.1" viewBox="0 0 1080 1080">
  <!-- Generator: Adobe Illustrator 30.3.0, SVG Export Plug-In . SVG Version: 2.1.3 Build 182)  -->
  <defs>
    <style>
      .st0 {
        fill: #070508;
      }

      .st1 {
        fill: #cfd424;
      }

      @media (prefers-color-scheme: dark) {
        .st0 {
          fill: #cfd424;
        }

        .st1 {
          fill: #070508;
        }
      }
    </style>
  </defs>
  <g>
    <path class="st1" d="M468.47,463.37c6.04,0,11.33-2.27,15.87-6.8,4.53-4.53,6.8-9.82,6.8-15.87,0-6.05-2.27-11.33-6.8-15.87-4.53-4.53-9.83-6.8-15.87-6.8s-11.33,2.27-15.87,6.8c-4.53,4.53-6.8,9.82-6.8,15.87,0,6.05,2.27,11.33,6.8,15.87,4.53,4.53,9.82,6.8,15.87,6.8Z"/>
    <path class="st1" d="M700.36,623.43c-4.53-4.53-9.83-6.8-15.87-6.8-6.05,0-11.34,2.27-15.87,6.8-4.53,4.53-6.8,9.82-6.8,15.87,0,6.05,2.27,11.33,6.8,15.87,4.53,4.53,9.82,6.8,15.87,6.8s11.33-2.27,15.87-6.8c4.53-4.53,6.8-9.82,6.8-15.87,0-6.05-2.27-11.33-6.8-15.87Z"/>
  </g>
  <path class="st0" d="M632.29,507.42c-7.41-7.41-15.45-12.96-24.14-16.66-8.69-3.7-17.53-5.59-26.52-5.67-8.99-.07-17.87,1.7-26.63,5.33-8.77,3.63-16.77,9.07-24.03,16.32l-60.75,60.75.11.11-34.36,34.36c-7.71,7.71-16.24,11.48-25.61,11.33-9.37-.15-17.98-4.15-25.84-12.01-7.86-7.86-11.82-16.43-11.9-25.73-.07-9.29,3.74-17.79,11.45-25.5l60.75-60.75-24.93-24.93-60.75,60.75c-7.25,7.25-12.73,15.22-16.44,23.91-3.7,8.69-5.51,17.53-5.44,26.52.08,8.99,1.97,17.83,5.67,26.52,3.7,8.69,9.26,16.74,16.66,24.14,7.41,7.41,15.45,12.96,24.14,16.66,8.69,3.7,17.53,5.59,26.52,5.67,8.99.07,17.87-1.7,26.64-5.33,8.77-3.63,16.77-9.07,24.03-16.32l60.75-60.75-.11-.11,34.36-34.36c7.71-7.71,16.24-11.48,25.61-11.33,9.37.15,17.98,4.15,25.84,12.01,7.86,7.86,11.82,16.43,11.9,25.73.07,9.29-3.74,17.79-11.45,25.5l-48.28,48.28c-6.89,6.89-6.89,18.05,0,24.93,6.89,6.89,18.05,6.89,24.93,0l48.28-48.28c7.25-7.25,12.73-15.22,16.43-23.91,3.7-8.69,5.51-17.53,5.44-26.52-.08-8.99-1.97-17.83-5.67-26.52-3.7-8.69-9.26-16.74-16.66-24.14Z"/>
</svg>