<?xml version="1.0" encoding="UTF-8"?>
<svg id="Capa_1" xmlns="http://www.w3.org/2000/svg" version="1.1" viewBox="0 0 1080 1080">
  <!-- Generator: Adobe Illustrator 30.3.0, SVG Export Plug-In . SVG Version: 2.1.3 Build 182)  -->
  <defs>
    <style>
      .st0 {
        fill: #070508;
      }

      .st1 {
        fill: #cfd424;
      }
    </style>
  </defs>
  <g>
    <path class="st0" d="M178.05,543.29c4.55,0,8.34,1.52,11.37,4.55,3.03,3.04,4.55,6.82,4.55,11.38s-1.52,8.34-4.55,11.37c-3.04,3.04-6.82,4.55-11.37,4.55s-8.34-1.51-11.38-4.55c-3.04-3.03-4.55-6.82-4.55-11.37s1.51-8.34,4.55-11.38c3.03-3.03,6.82-4.55,11.38-4.55ZM165.54,595.61h25.03v109.2h-25.03v-109.2Z"/>
    <path class="st0" d="M264.5,618.36c-7.89,0-14.22,2.32-19,6.94-4.78,4.63-7.16,10.81-7.16,18.54v60.97h-25.03v-60.97c0-7.28,1.28-14.03,3.87-20.25,2.58-6.22,6.14-11.56,10.69-16.04,4.55-4.47,9.93-7.96,16.15-10.46,6.22-2.5,13.04-3.75,20.48-3.75s14.25,1.25,20.48,3.75c6.22,2.5,11.6,5.99,16.15,10.46,4.55,4.48,8.08,9.82,10.58,16.04,2.5,6.22,3.75,12.97,3.75,20.25v60.97h-25.03v-60.97c0-7.74-2.35-13.92-7.05-18.54-4.7-4.62-11-6.94-18.88-6.94Z"/>
    <path class="st0" d="M329.57,595.61h13.65v-29.58h25.03v29.58h26.16v25.03h-26.16v36.4c0,8.19,2.23,14.41,6.71,18.66,4.47,4.25,10.96,6.37,19.45,6.37v25.03c-7.73,0-14.75-1.22-21.04-3.64-6.29-2.42-11.68-5.8-16.15-10.12-4.47-4.32-7.93-9.59-10.35-15.81-2.43-6.22-3.64-13.04-3.64-20.48v-36.4h-13.65v-25.03Z"/>
    <path class="st0" d="M463.8,618.36c-8.04,0-14.41,2.2-19.11,6.6-4.7,4.4-7.05,10.39-7.05,17.98v61.88h-25.03v-60.97c0-7.74,1.21-14.71,3.64-20.93,2.42-6.22,5.88-11.52,10.35-15.93,4.47-4.4,9.86-7.77,16.15-10.12,6.29-2.35,13.31-3.53,21.05-3.53v25.03Z"/>
    <path class="st0" d="M472.9,650.22c0-8.19,1.4-15.77,4.21-22.75,2.81-6.97,6.71-13,11.72-18.09,5-5.08,10.96-9.02,17.86-11.83,6.9-2.81,14.45-4.21,22.64-4.21s15.74,1.4,22.64,4.21c6.9,2.81,12.85,6.75,17.86,11.83,5.01,5.08,8.91,11.11,11.72,18.09,2.8,6.98,4.21,14.56,4.21,22.75,0,1.06-.04,2.09-.11,3.07-.08.99-.27,2.24-.57,3.75h-86.68c1.36,7.73,4.74,13.84,10.12,18.31,5.38,4.47,12.32,6.71,20.82,6.71,5.76,0,10.88-1.06,15.36-3.19,4.47-2.12,8.08-5.23,10.81-9.33h27.3c-1.82,5.77-4.4,10.96-7.73,15.58-3.34,4.63-7.32,8.57-11.94,11.83-4.63,3.26-9.78,5.77-15.47,7.51-5.69,1.74-11.79,2.62-18.31,2.62-8.19,0-15.74-1.41-22.64-4.21-6.9-2.81-12.85-6.71-17.86-11.72-5.01-5.01-8.91-11-11.72-17.97-2.81-6.97-4.21-14.63-4.21-22.98ZM559.12,638.84c-2.13-6.37-5.77-11.38-10.92-15.02-5.16-3.64-11.45-5.46-18.89-5.46s-13.95,1.82-19.11,5.46c-5.16,3.64-8.72,8.65-10.69,15.02h59.61Z"/>
    <path class="st0" d="M628.97,748.04h-25.03v-111.48h25.03v14.79c0,4.25.8,8.27,2.39,12.06,1.59,3.79,3.75,7.05,6.48,9.78s5.95,4.89,9.67,6.48c3.72,1.59,7.77,2.39,12.17,2.39s8.23-.8,11.94-2.39c3.72-1.59,6.97-3.75,9.78-6.48,2.81-2.73,5.01-5.99,6.6-9.78,1.59-3.79,2.39-7.81,2.39-12.06s-.8-8.45-2.39-12.17c-1.59-3.72-3.79-6.94-6.6-9.67-2.81-2.73-6.07-4.89-9.78-6.48-3.72-1.59-7.7-2.39-11.94-2.39h-55.74v-25.03h55.74c7.74,0,15.02,1.44,21.84,4.32,6.82,2.88,12.74,6.83,17.75,11.83,5,5,8.95,10.88,11.83,17.63,2.88,6.75,4.32,14.07,4.32,21.95s-1.41,15.02-4.21,21.84c-2.81,6.82-6.6,12.74-11.38,17.75-4.78,5-10.43,8.95-16.95,11.83-6.52,2.88-13.57,4.32-21.16,4.32-6.37,0-12.29-.99-17.75-2.96-5.46-1.97-10.47-4.7-15.02-8.19v52.1Z"/>
    <rect class="st0" x="733.62" y="595.61" width="25.03" height="109.2"/>
    <path class="st0" d="M863.3,552.39h25.03v111.48h-25.03v-14.79c0-4.4-.8-8.46-2.39-12.17-1.59-3.71-3.75-6.94-6.48-9.67-2.73-2.73-5.96-4.89-9.67-6.48-3.72-1.59-7.77-2.39-12.17-2.39s-8.23.8-11.94,2.39c-3.72,1.59-6.98,3.75-9.78,6.48-2.81,2.73-5,5.96-6.6,9.67-1.59,3.72-2.39,7.78-2.39,12.17s.8,8.27,2.39,12.06c1.59,3.79,3.79,7.05,6.6,9.78,2.81,2.73,6.06,4.89,9.78,6.48,3.72,1.59,7.7,2.39,11.94,2.39h55.74v25.03h-55.74c-7.74,0-15.02-1.44-21.84-4.32-6.83-2.88-12.74-6.82-17.75-11.83-5.01-5.01-8.95-10.88-11.83-17.63-2.88-6.75-4.32-14.07-4.32-21.95s1.4-15.02,4.21-21.84c2.8-6.83,6.6-12.74,11.37-17.75,4.78-5.01,10.47-8.95,17.07-11.83,6.6-2.88,13.61-4.32,21.04-4.32,6.37,0,12.29.99,17.75,2.96,5.46,1.97,10.47,4.7,15.02,8.19v-52.1Z"/>
  </g>
  <g>
    <path class="st1" d="M529.26,377.29c6.04,0,11.33-2.27,15.87-6.8,4.53-4.53,6.8-9.82,6.8-15.87,0-6.05-2.27-11.33-6.8-15.87-4.53-4.53-9.83-6.8-15.87-6.8s-11.33,2.27-15.87,6.8c-4.53,4.53-6.8,9.82-6.8,15.87,0,6.05,2.27,11.33,6.8,15.87,4.53,4.53,9.82,6.8,15.87,6.8Z"/>
    <path class="st1" d="M761.15,537.35c-4.53-4.53-9.83-6.8-15.87-6.8-6.05,0-11.34,2.27-15.87,6.8-4.53,4.53-6.8,9.82-6.8,15.87,0,6.05,2.27,11.33,6.8,15.87,4.53,4.53,9.82,6.8,15.87,6.8s11.33-2.27,15.87-6.8c4.53-4.53,6.8-9.82,6.8-15.87,0-6.05-2.27-11.33-6.8-15.87Z"/>
    <path class="st1" d="M693.09,421.34c-7.41-7.41-15.45-12.96-24.14-16.66-8.69-3.7-17.53-5.59-26.52-5.67-8.99-.07-17.87,1.7-26.63,5.33-8.77,3.63-16.77,9.07-24.03,16.32l-60.75,60.75.11.11-34.36,34.36c-7.71,7.71-16.24,11.48-25.61,11.33-9.37-.15-17.98-4.15-25.84-12.01-7.86-7.86-11.82-16.43-11.9-25.73-.07-9.29,3.74-17.79,11.45-25.5l60.75-60.75-24.93-24.93-60.75,60.75c-7.25,7.25-12.73,15.22-16.44,23.91-3.7,8.69-5.51,17.53-5.44,26.52.08,8.99,1.97,17.83,5.67,26.52,3.7,8.69,9.26,16.74,16.66,24.14,7.41,7.41,15.45,12.96,24.14,16.66,8.69,3.7,17.53,5.59,26.52,5.67,8.99.07,17.87-1.7,26.64-5.33,8.77-3.63,16.77-9.07,24.03-16.32l60.75-60.75-.11-.11,34.36-34.36c7.71-7.71,16.24-11.48,25.61-11.33,9.37.15,17.98,4.15,25.84,12.01,7.86,7.86,11.82,16.43,11.9,25.73.07,9.29-3.74,17.79-11.45,25.5l-48.28,48.28c-6.89,6.89-6.89,18.05,0,24.93,6.89,6.89,18.05,6.89,24.93,0l48.28-48.28c7.25-7.25,12.73-15.22,16.43-23.91,3.7-8.69,5.51-17.53,5.44-26.52-.08-8.99-1.97-17.83-5.67-26.52-3.7-8.69-9.26-16.74-16.66-24.14Z"/>
  </g>
</svg>